<svg xmlns="http://www.w3.org/2000/svg" width="80.052" height="99.843" viewBox="0 0 80.052 99.843">
  <g id="Group_1" data-name="Group 1" transform="translate(-1516.993 -95)">
    <path id="Path_7" data-name="Path 7" d="M94.574,0c18.38,0,44.937,14.9,44.937,33.281a33.281,33.281,0,0,1-33.28,33.281H72.95c-18.38,0-12.645-24.882-12.645-43.265Z" transform="translate(1457.535 128.281)" fill="#3776ff"/>
    <path id="Path_8" data-name="Path 8" d="M94.574,66.562c18.38,0,44.937-14.9,44.937-33.281A33.281,33.281,0,0,0,106.231,0H72.95C54.57,0,60.305,28.212,60.305,46.594Z" transform="translate(1457.535 95)" fill="#3776ff"/>
    <path id="Path_9" data-name="Path 9" d="M30.71-42.812a21.323,21.323,0,0,0,4.6-.445,22.51,22.51,0,0,0,3.781-1.187v-8.193l-7.86-9.119H50.433v22.8a28.305,28.305,0,0,1-4.32,2.613,27.9,27.9,0,0,1-4.783,1.8A35.61,35.61,0,0,1,35.917-33.5a53.634,53.634,0,0,1-6.173.333,28.324,28.324,0,0,1-10.974-2.1,26.669,26.669,0,0,1-8.732-5.784A26.621,26.621,0,0,1,4.254-49.8,28.461,28.461,0,0,1,2.161-60.794a29.928,29.928,0,0,1,2-11.1A25.01,25.01,0,0,1,9.89-80.63,25.989,25.989,0,0,1,18.9-86.341a32.567,32.567,0,0,1,11.809-2.04,34.4,34.4,0,0,1,6.34.556,31.2,31.2,0,0,1,5.469,1.52A25.165,25.165,0,0,1,47.1-84,24.662,24.662,0,0,1,50.8-81.113l-3.633,5.524a4.037,4.037,0,0,1-1.241,1.224,2.951,2.951,0,0,1-1.576.445,4.341,4.341,0,0,1-2.3-.741q-1.483-.889-2.8-1.539a17.079,17.079,0,0,0-2.688-1.056,17.619,17.619,0,0,0-2.892-.593,28.375,28.375,0,0,0-3.411-.185,15.56,15.56,0,0,0-6.34,1.241,13.6,13.6,0,0,0-4.8,3.5,15.847,15.847,0,0,0-3.059,5.432,21.891,21.891,0,0,0-1.076,7.064,22.733,22.733,0,0,0,1.187,7.637,16.41,16.41,0,0,0,3.281,5.636,13.933,13.933,0,0,0,4.968,3.5,16.089,16.089,0,0,0,6.286,1.2Z" transform="translate(1530.537 205.032)" fill="#fff" stroke="#fff" stroke-width="3"/>
  </g>
</svg>
