<svg xmlns="http://www.w3.org/2000/svg" width="498.462" height="110.288" viewBox="0 0 498.462 110.288">
  <g id="Group_10" data-name="Group 10" transform="translate(-823.943 -155.144)">
    <path id="Path_4" data-name="Path 4" d="M14.355,0H4.546V-49.014h9.81V-29.4H33.94V-49.014h9.81V0H33.94V-19.585H14.355ZM65.864-8.955a5.327,5.327,0,0,0,1.094.222q.547.051,1.094.051a9.186,9.186,0,0,0,2.632-.376,9.512,9.512,0,0,0,2.375-1.077,8.849,8.849,0,0,0,1.982-1.709,8.981,8.981,0,0,0,1.418-2.239L83.3-7.212a18.4,18.4,0,0,1-3,3.312,18.87,18.87,0,0,1-3.657,2.5A18.276,18.276,0,0,1,72.512.154a18.742,18.742,0,0,1-4.46.53A18.483,18.483,0,0,1,60.789-.752a18.353,18.353,0,0,1-5.947-4,18.766,18.766,0,0,1-4.016-6.1,20.073,20.073,0,0,1-1.47-7.776,20.735,20.735,0,0,1,1.47-7.93,18.254,18.254,0,0,1,4.016-6.118,18.17,18.17,0,0,1,5.947-3.931,18.875,18.875,0,0,1,7.263-1.4,18.391,18.391,0,0,1,4.478.547,18.8,18.8,0,0,1,4.153,1.572,18.912,18.912,0,0,1,3.674,2.512,18.559,18.559,0,0,1,3.008,3.333ZM70.649-28.2a5.374,5.374,0,0,0-1.282-.308,12.245,12.245,0,0,0-1.316-.068,9.33,9.33,0,0,0-3.606.7,8.581,8.581,0,0,0-2.939,2,9.426,9.426,0,0,0-1.965,3.127,11.2,11.2,0,0,0-.718,4.119q0,.513.051,1.162t.171,1.316q.12.667.291,1.282a4.77,4.77,0,0,0,.444,1.094ZM97.446,0h-9.4V-51.167h9.4Zm16.509,13.945h-9.4V-36.606h2.256l3.726,4.409a24.828,24.828,0,0,1,2.769-2.256,21.127,21.127,0,0,1,3.127-1.829A18.548,18.548,0,0,1,119.8-37.5a14.2,14.2,0,0,1,3.521-.444,19.079,19.079,0,0,1,7.263,1.384,17.947,17.947,0,0,1,5.947,3.914,18.294,18.294,0,0,1,4.016,6.1,20.606,20.606,0,0,1,1.47,7.913,21.338,21.338,0,0,1-1.47,8.118A18.029,18.029,0,0,1,136.531-4.4a17.426,17.426,0,0,1-5.947,3.845A19.724,19.724,0,0,1,123.32.786a11.082,11.082,0,0,1-2.443-.273,16.531,16.531,0,0,1-2.394-.735Q117.3-.684,116.16-1.265t-2.2-1.2Zm18.7-32.573a11.194,11.194,0,0,0-.735-4.17,9.272,9.272,0,0,0-2-3.127,8.631,8.631,0,0,0-2.974-1.965,9.664,9.664,0,0,0-3.623-.684,9.534,9.534,0,0,0-3.606.684,8.67,8.67,0,0,0-2.957,1.965,9.272,9.272,0,0,0-2,3.127,11.194,11.194,0,0,0-.735,4.17,10.9,10.9,0,0,0,.735,4.067,9.463,9.463,0,0,0,2,3.145A8.975,8.975,0,0,0,119.714-9.4a9.137,9.137,0,0,0,3.606.718,9.261,9.261,0,0,0,3.623-.718,8.929,8.929,0,0,0,2.974-2.017,9.464,9.464,0,0,0,2-3.145,10.9,10.9,0,0,0,.734-4.066Zm54.79-5.879A24.142,24.142,0,0,1,186.57-18a24.187,24.187,0,0,1-2.478,5.845A25.255,25.255,0,0,1,180.264-7.2a24.275,24.275,0,0,1-4.956,3.845,24.5,24.5,0,0,1-5.862,2.478A24.141,24.141,0,0,1,162.935,0H148.169V-49.014h14.766a24.141,24.141,0,0,1,6.511.872,24.5,24.5,0,0,1,5.862,2.478,24.275,24.275,0,0,1,4.956,3.845,25.255,25.255,0,0,1,3.828,4.956,24.188,24.188,0,0,1,2.478,5.845,24.141,24.141,0,0,1,.871,6.511Zm-9.81,0a14.309,14.309,0,0,0-1.145-5.708,14.775,14.775,0,0,0-3.145-4.666,14.96,14.96,0,0,0-4.683-3.162,14.249,14.249,0,0,0-5.725-1.162h-4.888V-9.81h4.888a14.432,14.432,0,0,0,5.725-1.145,14.723,14.723,0,0,0,4.683-3.145,14.723,14.723,0,0,0,3.145-4.683,14.432,14.432,0,0,0,1.142-5.724ZM207.5-8.955a5.327,5.327,0,0,0,1.094.222q.547.051,1.094.051a9.186,9.186,0,0,0,2.632-.376,9.512,9.512,0,0,0,2.375-1.077,8.849,8.849,0,0,0,1.982-1.709,8.981,8.981,0,0,0,1.418-2.239l6.836,6.87A18.4,18.4,0,0,1,221.946-3.9a18.87,18.87,0,0,1-3.657,2.5A18.276,18.276,0,0,1,214.153.154a18.742,18.742,0,0,1-4.46.53A18.483,18.483,0,0,1,202.43-.752a18.353,18.353,0,0,1-5.947-4,18.766,18.766,0,0,1-4.016-6.1A20.074,20.074,0,0,1,191-18.628a20.735,20.735,0,0,1,1.47-7.93,18.254,18.254,0,0,1,4.016-6.118,18.17,18.17,0,0,1,5.947-3.931,18.875,18.875,0,0,1,7.263-1.4,18.391,18.391,0,0,1,4.478.547,18.8,18.8,0,0,1,4.153,1.572A18.912,18.912,0,0,1,222-33.376a18.558,18.558,0,0,1,3,3.332ZM212.29-28.2a5.374,5.374,0,0,0-1.282-.308,12.245,12.245,0,0,0-1.316-.068,9.33,9.33,0,0,0-3.606.7,8.581,8.581,0,0,0-2.939,2,9.426,9.426,0,0,0-1.965,3.127,11.2,11.2,0,0,0-.718,4.119q0,.513.051,1.162t.171,1.316q.12.667.291,1.282a4.769,4.769,0,0,0,.444,1.094ZM249.785,0H228.457V-9.3h21.328a2.238,2.238,0,0,0,1.641-.684,2.237,2.237,0,0,0,.684-1.641,1.273,1.273,0,0,0-.684-1.3,3.978,3.978,0,0,0-1.641-.308h-9.707a11.261,11.261,0,0,1-4.546-.923,11.716,11.716,0,0,1-3.691-2.512,11.828,11.828,0,0,1-2.478-3.708,11.444,11.444,0,0,1-.906-4.546,11.444,11.444,0,0,1,.906-4.546,11.623,11.623,0,0,1,2.478-3.691,11.623,11.623,0,0,1,3.691-2.478,11.444,11.444,0,0,1,4.546-.906h18.9v9.3h-18.9a2.238,2.238,0,0,0-1.641.684,2.237,2.237,0,0,0-.684,1.641,2.335,2.335,0,0,0,.684,1.692,2.211,2.211,0,0,0,1.641.7h9.707a12.622,12.622,0,0,1,4.512.8,11.407,11.407,0,0,1,3.691,2.239,10.574,10.574,0,0,1,2.5,3.452,10.469,10.469,0,0,1,.923,4.409,11.14,11.14,0,0,1-.923,4.529,12.132,12.132,0,0,1-2.5,3.691,11.484,11.484,0,0,1-3.691,2.5A11.358,11.358,0,0,1,249.785,0Zm25.977,0h-9.4V-51.167h9.4V-18.9l13.911-17.637H300.4L288.271-21.294,300.4,0H289.673l-7.417-13.3-6.494,8.613Z" transform="translate(1022 244.899)" fill="#fff"/>
    <g id="Group_1" data-name="Group 1" transform="translate(21.456 -375.814)">
      <rect id="Rectangle_4" data-name="Rectangle 4" width="31.194" height="31.194" transform="translate(868.659 553.016) rotate(45)" fill="#90ba4c"/>
      <path id="Rectangle_11" data-name="Rectangle 11" d="M0,0H31.194V31.194H4a4,4,0,0,1-4-4Z" transform="translate(846.602 575.073) rotate(45)" fill="#719d2c"/>
      <rect id="Rectangle_7" data-name="Rectangle 7" width="31.194" height="31.194" transform="translate(912.774 553.016) rotate(45)" fill="#90ba4c"/>
      <rect id="Rectangle_9" data-name="Rectangle 9" width="31.194" height="31.194" transform="translate(890.716 575.073) rotate(45)" fill="#719d2c"/>
      <path id="Rectangle_13" data-name="Rectangle 13" d="M0,0H31.194V27.194a4,4,0,0,1-4,4H0Z" transform="translate(912.774 597.131) rotate(45)" fill="#ff2e5e"/>
      <path id="Rectangle_14" data-name="Rectangle 14" d="M0,0H31.194V27.194a4,4,0,0,1-4,4H0Z" transform="translate(868.659 597.131) rotate(45)" fill="#ff2e5e"/>
      <rect id="Rectangle_10" data-name="Rectangle 10" width="31.194" height="31.194" transform="translate(934.831 575.073) rotate(45)" fill="#719d2c"/>
      <path id="Rectangle_5" data-name="Rectangle 5" d="M3,0H31.194V31.194H0V3A3,3,0,0,1,3,0Z" transform="translate(890.716 530.958) rotate(45)" fill="rgba(255,250,251,0.31)"/>
    </g>
    <g id="Group_1-2" data-name="Group 1" transform="translate(823.943 155.144)">
      <rect id="Rectangle_4-2" data-name="Rectangle 4" width="31.194" height="31.194" transform="translate(44.115 22.058) rotate(45)" fill="#ffafc2"/>
      <path id="Rectangle_11-2" data-name="Rectangle 11" d="M0,0H31.194V31.194H4a4,4,0,0,1-4-4Z" transform="translate(22.058 44.115) rotate(45)" fill="#ff6085"/>
      <rect id="Rectangle_7-2" data-name="Rectangle 7" width="31.194" height="31.194" transform="translate(88.23 22.058) rotate(45)" fill="#ffafc2"/>
      <rect id="Rectangle_9-2" data-name="Rectangle 9" width="31.194" height="31.194" transform="translate(66.172 44.115) rotate(45)" fill="#ff6085"/>
      <path id="Rectangle_13-2" data-name="Rectangle 13" d="M0,0H31.194V27.194a4,4,0,0,1-4,4H0Z" transform="translate(88.23 66.173) rotate(45)" fill="#ff2e5e"/>
      <path id="Rectangle_14-2" data-name="Rectangle 14" d="M0,0H31.194V27.194a4,4,0,0,1-4,4H0Z" transform="translate(44.115 66.173) rotate(45)" fill="#ff2e5e"/>
      <path id="Rectangle_15" data-name="Rectangle 15" d="M0,0H31.194V27.194a4,4,0,0,1-4,4H0Z" transform="translate(132.345 66.173) rotate(45)" fill="#ff2e5e"/>
      <rect id="Rectangle_10-2" data-name="Rectangle 10" width="31.194" height="31.194" transform="translate(110.287 44.115) rotate(45)" fill="#ff6085"/>
      <path id="Rectangle_12" data-name="Rectangle 12" d="M0,0H27.194a4,4,0,0,1,4,4V31.194H0Z" transform="translate(154.402 44.115) rotate(45)" fill="#ff6085"/>
      <rect id="Rectangle_8" data-name="Rectangle 8" width="31.194" height="31.194" transform="translate(132.345 22.058) rotate(45)" fill="#ffafc2"/>
      <path id="Rectangle_5-2" data-name="Rectangle 5" d="M3,0H31.194V31.194H0V3A3,3,0,0,1,3,0Z" transform="translate(66.172) rotate(45)" fill="#ffedf1"/>
      <path id="Rectangle_6" data-name="Rectangle 6" d="M3,0H31.194V31.194H0V3A3,3,0,0,1,3,0Z" transform="translate(110.287) rotate(45)" fill="#ffedf1"/>
    </g>
  </g>
</svg>
